<svg width="30" height="37" viewBox="0 0 30 37" fill="none" xmlns="http://www.w3.org/2000/svg">
<path d="M15 36.3333C17.0167 36.3333 18.6667 34.6833 18.6667 32.6667H11.3333C11.3333 34.6833 12.9833 36.3333 15 36.3333ZM26 25.3333V16.1667C26 10.5383 23.0117 5.82668 17.75 4.58001V3.33334C17.75 1.81168 16.5217 0.583344 15 0.583344C13.4783 0.583344 12.25 1.81168 12.25 3.33334V4.58001C7.00667 5.82668 4 10.52 4 16.1667V25.3333L0.333336 29V30.8333H29.6667V29L26 25.3333ZM22.3333 27.1667H7.66667V16.1667C7.66667 11.62 10.435 7.91668 15 7.91668C19.565 7.91668 22.3333 11.62 22.3333 16.1667V27.1667Z" fill="#382E1E"/>
</svg>
