<?xml version="1.0" standalone="no"?>
<!DOCTYPE svg PUBLIC "-//W3C//DTD SVG 20010904//EN"
 "http://www.w3.org/TR/2001/REC-SVG-20010904/DTD/svg10.dtd">
<svg version="1.0" xmlns="http://www.w3.org/2000/svg"
 width="626.000000pt" height="626.000000pt" viewBox="0 0 626 626">

<g transform="scale(1, 1)" fill="currentColor" stroke="none">
<path d="M2653 4664 c-20 -20 -24 -32 -20 -59 3 -19 15 -47 27 -63 50 -68 45 -129 -25 -282 -73 -157 -79 -242 -28 -344 48 -94 100 -120 157 -75 34 27 35 77 1 127 -39 57 -34 105 25 238 80 180 87 258 35 372 -51 111 -115 143 -172 86z"/>
<path d="M3072 4667 c-30 -32 -28 -78 4 -127 44 -66 44 -122 -1 -221 -71 -158 -88 -217 -83 -290 11 -152 121 -257 193 -184 33 32 32 71 -2 120 -43 63 -39 107 27 250 l55 120 0 100 c0 91 -3 105 -30 158 -16 33 -40 67 -53 78 -34 26 -83 25 -110 -4z"/>
<path d="M3493 4675 c-38 -27 -39 -68 -2 -132 48 -84 45 -128 -19 -268 -78 -171 -86 -260 -33 -363 45 -89 100 -114 155 -71 35 28 36 82 1 129 -39 52 -34 103 20 221 75 164 88 240 59 340 -18 61 -67 144 -90 153 -28 11 -69 6 -91 -9z"/>
<path d="M2114 3645 c-13 -33 4 -589 21 -695 37 -236 120 -501 226 -730 l42 -90 727 0 727 0 50 108 c49 104 123 291 123 311 0 11 8 13 90 31 211 47 411 221 497 434 50 121 68 286 36 325 -17 20 -28 21 -258 24 l-240 2 -5 145 -5 145 -1013 3 c-903 2 -1013 0 -1018 -13z m2374 -463 c3 -46 -19 -135 -48 -193 -51 -99 -186 -202 -284 -215 -58 -8 -62 0 -42 102 8 44 20 135 27 204 9 91 16 129 28 138 11 9 55 12 166 10 l150 -3 3 -43z"/>
<path d="M2045 2010 c-15 -24 118 -159 190 -192 l50 -23 820 -3 c983 -4 906 -12 1034 114 46 46 81 88 79 95 -4 12 -187 14 -1086 17 -728 1 -1083 -1 -1087 -8z"/>
</g>
</svg>
