<svg width="35" height="34" viewBox="0 0 35 34" fill="none" xmlns="http://www.w3.org/2000/svg">
<path d="M24.9167 18.6668C26.1667 18.6668 27.2667 17.9835 27.8334 16.9502L33.8001 6.1335C34.4167 5.0335 33.6167 3.66683 32.3501 3.66683H7.68341L6.11675 0.333496H0.666748V3.66683H4.00008L10.0001 16.3168L7.75008 20.3835C6.53341 22.6168 8.13342 25.3335 10.6667 25.3335H30.6667V22.0002H10.6667L12.5001 18.6668H24.9167ZM9.26675 7.00016H29.5167L24.9167 15.3335H13.2167L9.26675 7.00016ZM10.6667 27.0002C8.83342 27.0002 7.35008 28.5002 7.35008 30.3335C7.35008 32.1668 8.83342 33.6668 10.6667 33.6668C12.5001 33.6668 14.0001 32.1668 14.0001 30.3335C14.0001 28.5002 12.5001 27.0002 10.6667 27.0002ZM27.3334 27.0002C25.5001 27.0002 24.0168 28.5002 24.0168 30.3335C24.0168 32.1668 25.5001 33.6668 27.3334 33.6668C29.1667 33.6668 30.6667 32.1668 30.6667 30.3335C30.6667 28.5002 29.1667 27.0002 27.3334 27.0002Z" fill="currentColor"/>
</svg>
