<?xml version="1.0" standalone="no"?>
<!DOCTYPE svg PUBLIC "-//W3C//DTD SVG 20010904//EN"
 "http://www.w3.org/TR/2001/REC-SVG-20010904/DTD/svg10.dtd">
<svg version="1.0" xmlns="http://www.w3.org/2000/svg"
 width="512.000000pt" height="512.000000pt" viewBox="0 0 512.000000 512.000000"
 preserveAspectRatio="xMidYMid meet">

<g transform="translate(0.000000,512.000000) scale(0.100000,-0.100000)"
fill="currentColor" stroke="none">
<path d="M1286 4855 c-36 -146 -66 -269 -66 -275 0 -7 442 -10 1340 -10 898 0
1340 3 1340 10 0 6 -30 129 -66 275 l-66 265 -1208 0 -1208 0 -66 -265z"/>
<path d="M1100 4300 l0 -90 1460 0 1460 0 0 90 0 90 -1460 0 -1460 0 0 -90z"/>
<path d="M1290 4008 c0 -26 71 -835 76 -865 l5 -33 1189 0 1189 0 5 33 c5 30
76 839 76 865 0 9 -307 12 -1270 12 -963 0 -1270 -3 -1270 -12z"/>
<path d="M1200 2927 c0 -2 36 -327 80 -722 44 -395 80 -725 80 -732 0 -11 215
-13 1200 -13 660 0 1200 4 1200 8 0 5 36 332 80 727 44 395 80 722 80 727 0 4
-612 8 -1360 8 -748 0 -1360 -1 -1360 -3z m1494 -202 c199 -52 359 -219 401
-420 20 -94 19 -147 -5 -239 -37 -144 -116 -255 -239 -334 -92 -60 -157 -77
-291 -77 -134 0 -199 17 -291 77 -156 101 -260 285 -259 462 1 239 179 468
411 530 72 19 201 20 273 1z"/>
<path d="M2477 2550 c-168 -43 -278 -184 -278 -356 0 -124 55 -229 157 -300
238 -165 565 8 565 300 0 151 -75 268 -215 332 -62 28 -167 39 -229 24z"/>
<path d="M1530 1262 c0 -28 99 -1170 105 -1219 l6 -43 919 0 919 0 6 43 c6 49
105 1191 105 1219 0 17 -37 18 -1030 18 -993 0 -1030 -1 -1030 -18z"/>
</g>
</svg>
