<svg width="34" height="31" viewBox="0 0 34 31" fill="none" xmlns="http://www.w3.org/2000/svg">
<path d="M24.4999 0C21.5999 0 18.8166 1.35 16.9999 3.48333C15.1833 1.35 12.3999 0 9.49992 0C4.36659 0 0.333252 4.03333 0.333252 9.16667C0.333252 15.4667 5.99992 20.6 14.5833 28.4L16.9999 30.5833L19.4166 28.3833C27.9999 20.6 33.6666 15.4667 33.6666 9.16667C33.6666 4.03333 29.6333 0 24.4999 0ZM17.1666 25.9167L16.9999 26.0833L16.8333 25.9167C8.89992 18.7333 3.66659 13.9833 3.66659 9.16667C3.66659 5.83333 6.16658 3.33333 9.49992 3.33333C12.0666 3.33333 14.5666 4.98333 15.4499 7.26667H18.5666C19.4333 4.98333 21.9333 3.33333 24.4999 3.33333C27.8333 3.33333 30.3333 5.83333 30.3333 9.16667C30.3333 13.9833 25.0999 18.7333 17.1666 25.9167Z" fill="currentColor"/>
</svg>
