<svg width="28" height="28" viewBox="0 0 28 28" fill="none" xmlns="http://www.w3.org/2000/svg">
<path d="M14.0001 3.83317C15.9334 3.83317 17.5001 5.39984 17.5001 7.33317C17.5001 9.2665 15.9334 10.8332 14.0001 10.8332C12.0667 10.8332 10.5001 9.2665 10.5001 7.33317C10.5001 5.39984 12.0667 3.83317 14.0001 3.83317ZM14.0001 18.8332C18.9501 18.8332 24.1667 21.2665 24.1667 22.3332V24.1665H3.83341V22.3332C3.83341 21.2665 9.05008 18.8332 14.0001 18.8332ZM14.0001 0.666504C10.3167 0.666504 7.33341 3.64984 7.33341 7.33317C7.33341 11.0165 10.3167 13.9998 14.0001 13.9998C17.6834 13.9998 20.6667 11.0165 20.6667 7.33317C20.6667 3.64984 17.6834 0.666504 14.0001 0.666504ZM14.0001 15.6665C9.55008 15.6665 0.666748 17.8998 0.666748 22.3332V27.3332H27.3334V22.3332C27.3334 17.8998 18.4501 15.6665 14.0001 15.6665Z" fill="currentColor"/>
</svg>
