<svg width="44" height="42" viewBox="0 0 44 42" fill="none" xmlns="http://www.w3.org/2000/svg">
<path d="M22 31.2135C21.2208 31.2135 20.5682 30.9546 20.042 30.4369C19.514 29.9209 19.25 29.2809 19.25 28.5169V9.23595L14.0938 14.2921C13.5437 14.8315 12.9021 15.1011 12.1688 15.1011C11.4354 15.1011 10.7708 14.809 10.175 14.2247C9.625 13.6854 9.36192 13.0445 9.38575 12.302C9.40775 11.5613 9.67083 10.9438 10.175 10.4494L20.075 0.741572C20.35 0.471909 20.6479 0.280449 20.9688 0.16719C21.2896 0.0557298 21.6333 0 22 0C22.3667 0 22.7104 0.0557298 23.0312 0.16719C23.3521 0.280449 23.65 0.471909 23.925 0.741572L33.825 10.4494C34.375 10.9888 34.6381 11.6288 34.6143 12.3694C34.5923 13.1119 34.3292 13.7303 33.825 14.2247C33.275 14.764 32.6223 15.0445 31.867 15.0661C31.1098 15.0894 30.4562 14.8315 29.9062 14.2921L24.75 9.23595V28.5169C24.75 29.2809 24.4869 29.9209 23.9608 30.4369C23.4328 30.9546 22.7792 31.2135 22 31.2135ZM5.5 42C3.9875 42 2.69317 41.4724 1.617 40.4171C0.539 39.36 0 38.0899 0 36.6067V31.2135C0 30.4494 0.263084 29.8085 0.78925 29.2908C1.31725 28.7748 1.97083 28.5169 2.75 28.5169C3.52917 28.5169 4.18275 28.7748 4.71075 29.2908C5.23692 29.8085 5.5 30.4494 5.5 31.2135V36.6067H38.5V31.2135C38.5 30.4494 38.764 29.8085 39.292 29.2908C39.8182 28.7748 40.4708 28.5169 41.25 28.5169C42.0292 28.5169 42.6818 28.7748 43.208 29.2908C43.736 29.8085 44 30.4494 44 31.2135V36.6067C44 38.0899 43.4619 39.36 42.3857 40.4171C41.3078 41.4724 40.0125 42 38.5 42H5.5Z" fill="currentColor"/>
</svg>
